<?xml version="1.0" standalone="no"?><!DOCTYPE svg PUBLIC "-//W3C//DTD SVG 1.1//EN" "http://www.w3.org/Graphics/SVG/1.1/DTD/svg11.dtd"><svg t="1574509793570" class="icon" viewBox="0 0 1024 1024" version="1.1" xmlns="http://www.w3.org/2000/svg" p-id="1038" xmlns:xlink="http://www.w3.org/1999/xlink" width="200" height="200"><defs><style type="text/css"></style></defs><path d="M703.341714 36.571429c51.913143 0 97.517714 36.370286 108.416 86.381714 9.161143 42.130286 47.542857 72.740571 91.337143 72.740571 66.688 0 120.905143 53.394286 120.905143 119.131429v553.472C1024 934.016 969.782857 987.428571 903.094857 987.428571H120.905143C54.217143 987.428571 0 934.016 0 868.297143V314.825143c0-65.718857 54.217143-119.131429 120.905143-119.131429 43.776 0 82.176-30.610286 91.337143-72.740571C223.140571 72.96 268.745143 36.571429 320.676571 36.571429zM512 310.857143c-141.092571 0-256 114.907429-256 256s114.761143 256 256 256c141.092571 0 256-114.907429 256-256s-114.907429-256-256-256z m0 109.714286c80.603429 0 146.157714 65.682286 146.285714 146.285714 0 80.731429-65.682286 146.285714-146.285714 146.285714-80.731429 0-146.285714-65.682286-146.285714-146.285714 0-80.731429 65.682286-146.285714 146.285714-146.285714z" p-id="1039"></path></svg>